<?xml version="1.0" encoding="UTF-8" standalone="no"?>
<svg
   xmlns:dc="http://purl.org/dc/elements/1.1/"
   xmlns:cc="http://creativecommons.org/ns#"
   xmlns:rdf="http://www.w3.org/1999/02/22-rdf-syntax-ns#"
   xmlns:svg="http://www.w3.org/2000/svg"
   xmlns="http://www.w3.org/2000/svg"
   xmlns:sodipodi="http://sodipodi.sourceforge.net/DTD/sodipodi-0.dtd"
   xmlns:inkscape="http://www.inkscape.org/namespaces/inkscape"
   id="color_line"
   height="297mm"
   viewBox="0 0 229.42912 162.23917"
   width="420mm"
   data-name="color line"
   version="1.1"
   sodipodi:docname="candle_mcqa01.svg"
   inkscape:version="1.0.1 (3bc2e813f5, 2020-09-07)">
  <rect
     style="fill:#ffffff;fill-opacity:1;stroke:#77bd53;stroke-width:0.144531;stroke-opacity:1"
     id="rect1040"
     width="316.72931"
     height="232.50352"
     x="-37.825951"
     y="-32.78249"
     ry="1.0086923" />
  <path
     id="rect1015"
     style="fill:#000025;fill-opacity:1;stroke-width:0.0794928"
     d="m 175.71617,66.461948 h 8.8114 c 0.64076,0 1.15661,0.922382 1.15661,2.06812 V 109.5328 c 0,1.14574 -0.51585,2.06812 -1.15661,2.06812 h -8.8114 c -0.64076,0 -1.15661,-0.92238 -1.15661,-2.06812 l 9.90696,-0.32046 -0.066,-40.370448 -9.84101,-0.311824 c -0.64066,-0.0203 0.51585,-2.06812 1.15661,-2.06812 z"
     sodipodi:nodetypes="sssssssccss"
     inkscape:export-filename="E:\clg\1 sem pspp\SE interview\aptitude\mcqa_01\mcqa01_1.svg.png"
     inkscape:export-xdpi="96"
     inkscape:export-ydpi="96" />
  <metadata
     id="metadata41">
    <rdf:RDF>
      <cc:Work
         rdf:about="">
        <dc:format>image/svg+xml</dc:format>
        <dc:type
           rdf:resource="http://purl.org/dc/dcmitype/StillImage" />
        <dc:title></dc:title>
      </cc:Work>
    </rdf:RDF>
  </metadata>
  <defs
     id="defs39" />
  <sodipodi:namedview
     pagecolor="#ffffff"
     bordercolor="#666666"
     borderopacity="1"
     objecttolerance="10"
     gridtolerance="10"
     guidetolerance="10"
     inkscape:pageopacity="0"
     inkscape:pageshadow="2"
     inkscape:window-width="1920"
     inkscape:window-height="1001"
     id="namedview37"
     showgrid="false"
     showguides="true"
     inkscape:guide-bbox="true"
     inkscape:zoom="0.2865716"
     inkscape:cx="-79.639084"
     inkscape:cy="795.84682"
     inkscape:window-x="-9"
     inkscape:window-y="-9"
     inkscape:window-maximized="1"
     inkscape:current-layer="color_line"
     units="mm" />
  <g
     id="g883"
     transform="matrix(-0.84112086,0,0,1.5074972,162.12429,17.561849)">
    <path
       d="M 27.616,21.28 C 27.838,10.78 39.525,3.75 39.525,3.75 a 22.791,22.791 0 0 0 4.376,11.1 10.809,10.809 0 0 1 2.49,7.005 5.79,5.79 0 0 1 -0.067,0.812 8.245,8.245 0 0 1 -8.224,6.919 H 35.97 A 8.276,8.276 0 0 1 27.616,21.28 Z"
       fill="#fcd462"
       id="path2" />
    <path
       d="m 39.52,3.75 a 21.956,21.956 0 0 0 0.75,3.77 C 37.5,9.45 29.48,15.76 29.29,24.44 a 8,8 0 0 0 0.27,2.2 7.937,7.937 0 0 1 -1.94,-5.36 C 27.84,10.78 39.52,3.75 39.52,3.75 Z"
       fill="#f7be56"
       id="path4" />
    <path
       d="M 48.066,53.693 V 71 H 26.319 V 50.39 a 2.261,2.261 0 0 0 2.225,-2.255 v -6.26 a 1.711,1.711 0 0 1 3.422,0 V 47.1 a 1.993,1.993 0 0 0 0.564,1.385 1.965,1.965 0 0 0 3.353,-1.385 v -3.049 a 1.517,1.517 0 0 1 1.5,-1.513 H 37.8 a 1.519,1.519 0 0 1 1.513,1.513 1.726,1.726 0 0 0 1.731,1.731 h 0.178 a 1.91,1.91 0 0 0 1.909,-1.909 v -3.1 a 1.518,1.518 0 0 1 3.036,0 v 11.012 a 1.9,1.9 0 0 0 0.554,1.355 1.874,1.874 0 0 0 1.345,0.553 z"
       fill="#eeefee"
       id="path6" />
    <path
       d="M 48.07,53.69 V 71 H 44.82 V 55.56 a 4.1,4.1 0 0 0 -1.34,-2.91 l -0.01,-0.01 a 1.928,1.928 0 0 1 -0.55,-1.36 v -6.55 a 1.766,1.766 0 0 0 0.21,-0.86 v -3.09 a 1.52,1.52 0 1 1 3.04,0 v 11 a 1.928,1.928 0 0 0 0.55,1.36 1.863,1.863 0 0 0 1.35,0.55 z"
       fill="#e1e6e9"
       id="path8" />
    <path
       d="m 49.985,37.118 v 14.667 a 1.909,1.909 0 0 1 -1.909,1.909 h -0.01 A 1.874,1.874 0 0 1 46.721,53.14 1.9,1.9 0 0 1 46.167,51.785 V 40.859 a 1.573,1.573 0 0 0 -1.117,-1.542 1.516,1.516 0 0 0 -1.919,1.46 v 3.1 a 1.909,1.909 0 0 1 -1.909,1.909 H 41.044 A 1.73,1.73 0 0 1 39.313,44.056 1.519,1.519 0 0 0 37.8,42.538 h -0.415 a 1.5,1.5 0 0 0 -1.5,1.5 V 47 a 2.03,2.03 0 0 1 -1.547,2.007 1.949,1.949 0 0 1 -1.806,-0.527 1.993,1.993 0 0 1 -0.564,-1.385 v -5.219 a 1.712,1.712 0 0 0 -2.01,-1.685 1.78,1.78 0 0 0 -1.412,1.783 v 5.655 c 0,1.767 -1,2.763 -2.225,2.763 h -0.04 A 2.262,2.262 0 0 1 24.016,48.137 V 37.118 a 4.054,4.054 0 0 1 4.054,-4.054 h 17.861 a 4.054,4.054 0 0 1 4.054,4.054 z"
       fill="#bbbbcd"
       id="path10" />
    <path
       d="M 45.928,33.06 H 27.355 a 3.845,3.845 0 0 0 -3.035,2.827 c 0.027,0 0.053,-0.007 0.08,-0.007 h 19.83 a 3.071,3.071 0 0 1 3.07,3.07 v 14.59 a 1.923,1.923 0 0 0 0.77,0.15 h 0.01 a 1.9,1.9 0 0 0 1.9,-1.91 V 37.112 A 4.052,4.052 0 0 0 45.928,33.06 Z"
       fill="#9297ab"
       id="path12" />
    <path
       d="m 32.039,25.194 c 0.117,-5.554 6.3,-9.269 6.3,-9.269 a 12.051,12.051 0 0 0 2.314,5.868 5.716,5.716 0 0 1 1.316,3.7 3.061,3.061 0 0 1 -0.036,0.429 4.36,4.36 0 0 1 -4.349,3.66 h -1.129 a 4.376,4.376 0 0 1 -4.416,-4.388 z"
       fill="#fe7058"
       id="path14" />
    <g
       fill="#323c6b"
       id="g34">
      <path
         d="M 37.582,30.086 H 36.455 A 5,5 0 0 1 32.9,28.594 4.7,4.7 0 0 1 31.536,25.184 c 0.122,-5.764 6.278,-9.53 6.54,-9.687 a 0.5,0.5 0 0 1 0.756,0.388 11.63,11.63 0 0 0 2.205,5.6 6.243,6.243 0 0 1 1.429,4.015 3.552,3.552 0 0 1 -0.04,0.492 4.871,4.871 0 0 1 -4.844,4.094 z M 32.54,25.205 a 3.71,3.71 0 0 0 1.078,2.689 4,4 0 0 0 2.838,1.192 h 1.126 a 3.866,3.866 0 0 0 3.855,-3.232 2.544,2.544 0 0 0 0.03,-0.355 5.191,5.191 0 0 0 -1.207,-3.394 12.171,12.171 0 0 1 -2.306,-5.319 c -1.54,1.108 -5.326,4.251 -5.415,8.418 z"
         id="path16" />
      <path
         d="m 37,33.251 a 0.5,0.5 0 0 1 -0.5,-0.5 v -6.834 a 0.5,0.5 0 0 1 1,0 v 6.834 a 0.5,0.5 0 0 1 -0.5,0.5 z"
         id="path18" />
      <path
         d="M 48.066,71.5 H 26.319 A 0.5,0.5 0 0 1 25.819,71 V 50.39 a 0.5,0.5 0 0 1 0.492,-0.5 1.765,1.765 0 0 0 1.733,-1.754 v -6.26 a 2.211,2.211 0 1 1 4.422,0 V 47.1 a 1.5,1.5 0 0 0 0.422,1.036 1.473,1.473 0 0 0 2.063,0 1.449,1.449 0 0 0 0.431,-1.037 v -3.048 a 2.025,2.025 0 0 1 2,-2.013 h 0.4 a 2.02,2.02 0 0 1 2.033,2.013 1.232,1.232 0 0 0 1.231,1.23 h 0.178 a 1.41,1.41 0 0 0 1.409,-1.409 v -3.1 a 2.018,2.018 0 0 1 4.036,0 v 11.013 a 1.4,1.4 0 0 0 0.407,1 1.373,1.373 0 0 0 0.992,0.407 0.5,0.5 0 0 1 0.5,0.5 V 71 a 0.5,0.5 0 0 1 -0.502,0.5 z m -21.247,-1 H 47.566 V 54.142 a 2.39,2.39 0 0 1 -1.9,-2.357 V 40.778 a 1.018,1.018 0 0 0 -2.036,0 v 3.1 a 2.411,2.411 0 0 1 -2.409,2.409 H 41.043 A 2.233,2.233 0 0 1 38.812,44.057 1.014,1.014 0 0 0 37.8,43.038 h -0.416 a 1.019,1.019 0 0 0 -1,1.013 V 47.1 a 2.441,2.441 0 0 1 -0.727,1.747 2.574,2.574 0 0 1 -1.755,0.711 2.464,2.464 0 0 1 -1.719,-0.715 2.514,2.514 0 0 1 -0.715,-1.743 v -5.225 a 1.211,1.211 0 0 0 -2.422,0 v 6.26 a 2.772,2.772 0 0 1 -2.225,2.7 z"
         id="path20" />
      <path
         d="M 48.076,54.193 A 2.391,2.391 0 0 1 45.667,51.784 V 40.859 a 1.075,1.075 0 0 0 -0.744,-1.058 1.016,1.016 0 0 0 -1.292,0.976 v 3.1 a 2.411,2.411 0 0 1 -2.409,2.409 H 41.044 A 2.23,2.23 0 0 1 38.813,44.056 1.02,1.02 0 0 0 37.8,43.038 h -0.416 a 1,1 0 0 0 -1,1 V 47 a 2.531,2.531 0 0 1 -1.941,2.5 2.456,2.456 0 0 1 -2.26,-0.658 2.514,2.514 0 0 1 -0.715,-1.743 v -5.224 a 1.212,1.212 0 0 0 -1.426,-1.192 1.28,1.28 0 0 0 -1,1.29 v 5.655 c 0,1.921 -1.121,3.263 -2.725,3.263 a 2.77,2.77 0 0 1 -2,-0.809 2.733,2.733 0 0 1 -0.809,-1.945 V 37.118 a 4.559,4.559 0 0 1 4.554,-4.554 h 17.869 a 4.559,4.559 0 0 1 4.554,4.554 v 14.667 a 2.411,2.411 0 0 1 -2.409,2.408 z M 44.645,38.765 a 2.017,2.017 0 0 1 2.023,2.094 v 10.926 a 1.4,1.4 0 0 0 0.407,1 1.373,1.373 0 0 0 0.992,0.407 1.412,1.412 0 0 0 1.418,-1.409 V 37.118 A 3.558,3.558 0 0 0 45.931,33.564 H 28.069 a 3.558,3.558 0 0 0 -3.554,3.554 v 11.018 a 1.762,1.762 0 0 0 1.765,1.754 c 1.087,0 1.765,-0.888 1.765,-2.263 v -5.654 a 2.287,2.287 0 0 1 1.827,-2.273 2.212,2.212 0 0 1 2.595,2.178 V 47.1 a 1.5,1.5 0 0 0 0.422,1.036 1.462,1.462 0 0 0 1.343,0.387 1.527,1.527 0 0 0 1.15,-1.523 v -2.96 a 2.006,2.006 0 0 1 2,-2 h 0.4 a 2.02,2.02 0 0 1 2.033,2.014 1.23,1.23 0 0 0 1.231,1.229 h 0.178 a 1.41,1.41 0 0 0 1.409,-1.409 v -3.1 a 2.012,2.012 0 0 1 2.013,-2.013 z"
         id="path22" />
      <path
         d="m 38.1,30.086 h -2.13 a 9.009,9.009 0 0 1 -6.4,-2.689 8.454,8.454 0 0 1 -2.452,-6.128 C 27.341,10.613 38.78,3.614 39.267,3.321 a 0.5,0.5 0 0 1 0.756,0.388 22.456,22.456 0 0 0 4.267,10.825 11.368,11.368 0 0 1 2.6,7.326 6.373,6.373 0 0 1 -0.072,0.875 8.762,8.762 0 0 1 -8.718,7.351 z m -9.982,-8.8 a 7.459,7.459 0 0 0 2.164,5.414 8,8 0 0 0 5.685,2.389 H 38.1 a 7.757,7.757 0 0 0 7.731,-6.494 5.41,5.41 0 0 0 0.062,-0.74 10.246,10.246 0 0 0 -2.38,-6.693 A 22.842,22.842 0 0 1 39.125,4.608 C 36.687,6.271 28.3,12.617 28.116,21.291 Z"
         id="path24" />
      <path
         d="m 51.066,56.833 a 0.5,0.5 0 0 1 -0.5,-0.5 v -0.625 a 0.5,0.5 0 0 1 1,0 v 0.625 a 0.5,0.5 0 0 1 -0.5,0.5 z"
         id="path26" />
      <path
         d="m 51.066,66.458 a 0.5,0.5 0 0 1 -0.5,-0.5 v -7.5 a 0.5,0.5 0 0 1 1,0 v 7.5 a 0.5,0.5 0 0 1 -0.5,0.5 z"
         id="path28" />
      <path
         d="m 25.468,16.708 a 0.5,0.5 0 0 1 -0.477,-0.65 l 0.044,-0.15 c 0.022,-0.079 0.045,-0.157 0.07,-0.233 a 0.5,0.5 0 0 1 0.948,0.317 l -0.109,0.366 a 0.5,0.5 0 0 1 -0.476,0.35 z"
         id="path30" />
      <path
         d="M 26.351,14.375 A 0.493,0.493 0 0 1 26.144,14.33 0.5,0.5 0 0 1 25.896,13.668 26.927,26.927 0 0 1 30.617,6.7 a 0.50003625,0.50003625 0 0 1 0.737,0.676 25.92,25.92 0 0 0 -4.548,6.7 0.5,0.5 0 0 1 -0.455,0.299 z"
         id="path32" />
    </g>
  </g>
  <g
     id="g919"
     transform="matrix(-1.340363,0,0,1.515025,145.74841,17.023609)">
    <path
       d="M 27.616,21.28 C 27.838,10.78 39.525,3.75 39.525,3.75 a 22.791,22.791 0 0 0 4.376,11.1 10.809,10.809 0 0 1 2.49,7.005 5.79,5.79 0 0 1 -0.067,0.812 8.245,8.245 0 0 1 -8.224,6.919 H 35.97 A 8.276,8.276 0 0 1 27.616,21.28 Z"
       fill="#fcd462"
       id="path885" />
    <path
       d="m 39.52,3.75 a 21.956,21.956 0 0 0 0.75,3.77 C 37.5,9.45 29.48,15.76 29.29,24.44 a 8,8 0 0 0 0.27,2.2 7.937,7.937 0 0 1 -1.94,-5.36 C 27.84,10.78 39.52,3.75 39.52,3.75 Z"
       fill="#f7be56"
       id="path887" />
    <path
       d="M 48.066,53.693 V 71 H 26.319 V 50.39 a 2.261,2.261 0 0 0 2.225,-2.255 v -6.26 a 1.711,1.711 0 0 1 3.422,0 V 47.1 a 1.993,1.993 0 0 0 0.564,1.385 1.965,1.965 0 0 0 3.353,-1.385 v -3.049 a 1.517,1.517 0 0 1 1.5,-1.513 H 37.8 a 1.519,1.519 0 0 1 1.513,1.513 1.726,1.726 0 0 0 1.731,1.731 h 0.178 a 1.91,1.91 0 0 0 1.909,-1.909 v -3.1 a 1.518,1.518 0 0 1 3.036,0 v 11.012 a 1.9,1.9 0 0 0 0.554,1.355 1.874,1.874 0 0 0 1.345,0.553 z"
       fill="#eeefee"
       id="path889" />
    <path
       d="M 48.07,53.69 V 71 H 44.82 V 55.56 a 4.1,4.1 0 0 0 -1.34,-2.91 l -0.01,-0.01 a 1.928,1.928 0 0 1 -0.55,-1.36 v -6.55 a 1.766,1.766 0 0 0 0.21,-0.86 v -3.09 a 1.52,1.52 0 1 1 3.04,0 v 11 a 1.928,1.928 0 0 0 0.55,1.36 1.863,1.863 0 0 0 1.35,0.55 z"
       fill="#e1e6e9"
       id="path891" />
    <path
       d="m 49.985,37.118 v 14.667 a 1.909,1.909 0 0 1 -1.909,1.909 h -0.01 A 1.874,1.874 0 0 1 46.721,53.14 1.9,1.9 0 0 1 46.167,51.785 V 40.859 a 1.573,1.573 0 0 0 -1.117,-1.542 1.516,1.516 0 0 0 -1.919,1.46 v 3.1 a 1.909,1.909 0 0 1 -1.909,1.909 H 41.044 A 1.73,1.73 0 0 1 39.313,44.056 1.519,1.519 0 0 0 37.8,42.538 h -0.415 a 1.5,1.5 0 0 0 -1.5,1.5 V 47 a 2.03,2.03 0 0 1 -1.547,2.007 1.949,1.949 0 0 1 -1.806,-0.527 1.993,1.993 0 0 1 -0.564,-1.385 v -5.219 a 1.712,1.712 0 0 0 -2.01,-1.685 1.78,1.78 0 0 0 -1.412,1.783 v 5.655 c 0,1.767 -1,2.763 -2.225,2.763 h -0.04 A 2.262,2.262 0 0 1 24.016,48.137 V 37.118 a 4.054,4.054 0 0 1 4.054,-4.054 h 17.861 a 4.054,4.054 0 0 1 4.054,4.054 z"
       fill="#bbbbcd"
       id="path893" />
    <path
       d="M 45.928,33.06 H 27.355 a 3.845,3.845 0 0 0 -3.035,2.827 c 0.027,0 0.053,-0.007 0.08,-0.007 h 19.83 a 3.071,3.071 0 0 1 3.07,3.07 v 14.59 a 1.923,1.923 0 0 0 0.77,0.15 h 0.01 a 1.9,1.9 0 0 0 1.9,-1.91 V 37.112 A 4.052,4.052 0 0 0 45.928,33.06 Z"
       fill="#9297ab"
       id="path895" />
    <path
       d="m 32.039,25.194 c 0.117,-5.554 6.3,-9.269 6.3,-9.269 a 12.051,12.051 0 0 0 2.314,5.868 5.716,5.716 0 0 1 1.316,3.7 3.061,3.061 0 0 1 -0.036,0.429 4.36,4.36 0 0 1 -4.349,3.66 h -1.129 a 4.376,4.376 0 0 1 -4.416,-4.388 z"
       fill="#fe7058"
       id="path897" />
    <g
       fill="#323c6b"
       id="g917">
      <path
         d="M 37.582,30.086 H 36.455 A 5,5 0 0 1 32.9,28.594 4.7,4.7 0 0 1 31.536,25.184 c 0.122,-5.764 6.278,-9.53 6.54,-9.687 a 0.5,0.5 0 0 1 0.756,0.388 11.63,11.63 0 0 0 2.205,5.6 6.243,6.243 0 0 1 1.429,4.015 3.552,3.552 0 0 1 -0.04,0.492 4.871,4.871 0 0 1 -4.844,4.094 z M 32.54,25.205 a 3.71,3.71 0 0 0 1.078,2.689 4,4 0 0 0 2.838,1.192 h 1.126 a 3.866,3.866 0 0 0 3.855,-3.232 2.544,2.544 0 0 0 0.03,-0.355 5.191,5.191 0 0 0 -1.207,-3.394 12.171,12.171 0 0 1 -2.306,-5.319 c -1.54,1.108 -5.326,4.251 -5.415,8.418 z"
         id="path899" />
      <path
         d="m 37,33.251 a 0.5,0.5 0 0 1 -0.5,-0.5 v -6.834 a 0.5,0.5 0 0 1 1,0 v 6.834 a 0.5,0.5 0 0 1 -0.5,0.5 z"
         id="path901" />
      <path
         d="M 48.066,71.5 H 26.319 A 0.5,0.5 0 0 1 25.819,71 V 50.39 a 0.5,0.5 0 0 1 0.492,-0.5 1.765,1.765 0 0 0 1.733,-1.754 v -6.26 a 2.211,2.211 0 1 1 4.422,0 V 47.1 a 1.5,1.5 0 0 0 0.422,1.036 1.473,1.473 0 0 0 2.063,0 1.449,1.449 0 0 0 0.431,-1.037 v -3.048 a 2.025,2.025 0 0 1 2,-2.013 h 0.4 a 2.02,2.02 0 0 1 2.033,2.013 1.232,1.232 0 0 0 1.231,1.23 h 0.178 a 1.41,1.41 0 0 0 1.409,-1.409 v -3.1 a 2.018,2.018 0 0 1 4.036,0 v 11.013 a 1.4,1.4 0 0 0 0.407,1 1.373,1.373 0 0 0 0.992,0.407 0.5,0.5 0 0 1 0.5,0.5 V 71 a 0.5,0.5 0 0 1 -0.502,0.5 z m -21.247,-1 H 47.566 V 54.142 a 2.39,2.39 0 0 1 -1.9,-2.357 V 40.778 a 1.018,1.018 0 0 0 -2.036,0 v 3.1 a 2.411,2.411 0 0 1 -2.409,2.409 H 41.043 A 2.233,2.233 0 0 1 38.812,44.057 1.014,1.014 0 0 0 37.8,43.038 h -0.416 a 1.019,1.019 0 0 0 -1,1.013 V 47.1 a 2.441,2.441 0 0 1 -0.727,1.747 2.574,2.574 0 0 1 -1.755,0.711 2.464,2.464 0 0 1 -1.719,-0.715 2.514,2.514 0 0 1 -0.715,-1.743 v -5.225 a 1.211,1.211 0 0 0 -2.422,0 v 6.26 a 2.772,2.772 0 0 1 -2.225,2.7 z"
         id="path903" />
      <path
         d="M 48.076,54.193 A 2.391,2.391 0 0 1 45.667,51.784 V 40.859 a 1.075,1.075 0 0 0 -0.744,-1.058 1.016,1.016 0 0 0 -1.292,0.976 v 3.1 a 2.411,2.411 0 0 1 -2.409,2.409 H 41.044 A 2.23,2.23 0 0 1 38.813,44.056 1.02,1.02 0 0 0 37.8,43.038 h -0.416 a 1,1 0 0 0 -1,1 V 47 a 2.531,2.531 0 0 1 -1.941,2.5 2.456,2.456 0 0 1 -2.26,-0.658 2.514,2.514 0 0 1 -0.715,-1.743 v -5.224 a 1.212,1.212 0 0 0 -1.426,-1.192 1.28,1.28 0 0 0 -1,1.29 v 5.655 c 0,1.921 -1.121,3.263 -2.725,3.263 a 2.77,2.77 0 0 1 -2,-0.809 2.733,2.733 0 0 1 -0.809,-1.945 V 37.118 a 4.559,4.559 0 0 1 4.554,-4.554 h 17.869 a 4.559,4.559 0 0 1 4.554,4.554 v 14.667 a 2.411,2.411 0 0 1 -2.409,2.408 z M 44.645,38.765 a 2.017,2.017 0 0 1 2.023,2.094 v 10.926 a 1.4,1.4 0 0 0 0.407,1 1.373,1.373 0 0 0 0.992,0.407 1.412,1.412 0 0 0 1.418,-1.409 V 37.118 A 3.558,3.558 0 0 0 45.931,33.564 H 28.069 a 3.558,3.558 0 0 0 -3.554,3.554 v 11.018 a 1.762,1.762 0 0 0 1.765,1.754 c 1.087,0 1.765,-0.888 1.765,-2.263 v -5.654 a 2.287,2.287 0 0 1 1.827,-2.273 2.212,2.212 0 0 1 2.595,2.178 V 47.1 a 1.5,1.5 0 0 0 0.422,1.036 1.462,1.462 0 0 0 1.343,0.387 1.527,1.527 0 0 0 1.15,-1.523 v -2.96 a 2.006,2.006 0 0 1 2,-2 h 0.4 a 2.02,2.02 0 0 1 2.033,2.014 1.23,1.23 0 0 0 1.231,1.229 h 0.178 a 1.41,1.41 0 0 0 1.409,-1.409 v -3.1 a 2.012,2.012 0 0 1 2.013,-2.013 z"
         id="path905" />
      <path
         d="m 38.1,30.086 h -2.13 a 9.009,9.009 0 0 1 -6.4,-2.689 8.454,8.454 0 0 1 -2.452,-6.128 C 27.341,10.613 38.78,3.614 39.267,3.321 a 0.5,0.5 0 0 1 0.756,0.388 22.456,22.456 0 0 0 4.267,10.825 11.368,11.368 0 0 1 2.6,7.326 6.373,6.373 0 0 1 -0.072,0.875 8.762,8.762 0 0 1 -8.718,7.351 z m -9.982,-8.8 a 7.459,7.459 0 0 0 2.164,5.414 8,8 0 0 0 5.685,2.389 H 38.1 a 7.757,7.757 0 0 0 7.731,-6.494 5.41,5.41 0 0 0 0.062,-0.74 10.246,10.246 0 0 0 -2.38,-6.693 A 22.842,22.842 0 0 1 39.125,4.608 C 36.687,6.271 28.3,12.617 28.116,21.291 Z"
         id="path907" />
      <path
         d="m 51.066,56.833 a 0.5,0.5 0 0 1 -0.5,-0.5 v -0.625 a 0.5,0.5 0 0 1 1,0 v 0.625 a 0.5,0.5 0 0 1 -0.5,0.5 z"
         id="path909" />
      <path
         d="m 51.066,66.458 a 0.5,0.5 0 0 1 -0.5,-0.5 v -7.5 a 0.5,0.5 0 0 1 1,0 v 7.5 a 0.5,0.5 0 0 1 -0.5,0.5 z"
         id="path911" />
      <path
         d="m 25.468,16.708 a 0.5,0.5 0 0 1 -0.477,-0.65 l 0.044,-0.15 c 0.022,-0.079 0.045,-0.157 0.07,-0.233 a 0.5,0.5 0 0 1 0.948,0.317 l -0.109,0.366 a 0.5,0.5 0 0 1 -0.476,0.35 z"
         id="path913" />
      <path
         d="M 26.351,14.375 A 0.493,0.493 0 0 1 26.144,14.33 0.5,0.5 0 0 1 25.896,13.668 26.927,26.927 0 0 1 30.617,6.7 a 0.50003625,0.50003625 0 0 1 0.737,0.676 25.92,25.92 0 0 0 -4.548,6.7 0.5,0.5 0 0 1 -0.455,0.299 z"
         id="path915" />
    </g>
  </g>
  <rect
     style="fill:#000000;fill-opacity:1;stroke-width:0.144531"
     id="rect921"
     width="40.298794"
     height="1.7831324"
     x="-171.56664"
     y="80.686829"
     ry="0.89156622"
     rx="0"
     transform="scale(-1,1)"
     inkscape:export-filename="E:\clg\1 sem pspp\SE interview\aptitude\mcqa_01\mcqa01_1.svg.png"
     inkscape:export-xdpi="96"
     inkscape:export-ydpi="96" />
  <rect
     style="fill:#000000;fill-opacity:1;stroke-width:0.144531"
     id="rect923"
     width="40.298794"
     height="1.7831324"
     x="-171.92326"
     y="95.130203"
     ry="0.89156622"
     rx="0"
     transform="scale(-1,1)"
     inkscape:export-filename="E:\clg\1 sem pspp\SE interview\aptitude\mcqa_01\mcqa01_1.svg.png"
     inkscape:export-xdpi="96"
     inkscape:export-ydpi="96" />
  <rect
     style="fill:#000000;fill-opacity:1;stroke-width:0.144531"
     id="rect925"
     width="40.298794"
     height="1.7831324"
     x="-171.56665"
     y="109.57358"
     ry="0.89156622"
     rx="0"
     transform="scale(-1,1)"
     inkscape:export-filename="E:\clg\1 sem pspp\SE interview\aptitude\mcqa_01\mcqa01_1.svg.png"
     inkscape:export-xdpi="96"
     inkscape:export-ydpi="96" />
  <rect
     style="fill:#000000;fill-opacity:1;stroke-width:0.144531"
     id="rect927"
     width="40.298794"
     height="1.7831324"
     x="-171.92326"
     y="124.19164"
     ry="0.89156622"
     rx="0"
     transform="scale(-1,1)"
     inkscape:export-filename="E:\clg\1 sem pspp\SE interview\aptitude\mcqa_01\mcqa01_1.svg.png"
     inkscape:export-xdpi="96"
     inkscape:export-ydpi="96" />
  <rect
     style="fill:#000000;fill-opacity:1;stroke-width:0.144531"
     id="rect937"
     width="40.298794"
     height="1.7831324"
     x="-95.254143"
     y="80.686829"
     ry="0.89156622"
     rx="0"
     transform="scale(-1,1)"
     inkscape:export-filename="E:\clg\1 sem pspp\SE interview\aptitude\mcqa_01\mcqa01_1.svg.png"
     inkscape:export-xdpi="96"
     inkscape:export-ydpi="96" />
  <rect
     style="fill:#000000;fill-opacity:1;stroke-width:0.144531"
     id="rect939"
     width="40.298794"
     height="1.7831324"
     x="-95.610771"
     y="95.130203"
     ry="0.89156622"
     rx="0"
     transform="scale(-1,1)"
     inkscape:export-filename="E:\clg\1 sem pspp\SE interview\aptitude\mcqa_01\mcqa01_1.svg.png"
     inkscape:export-xdpi="96"
     inkscape:export-ydpi="96" />
  <rect
     style="fill:#000000;fill-opacity:1;stroke-width:0.144531"
     id="rect941"
     width="40.298794"
     height="1.7831324"
     x="-95.254143"
     y="109.57358"
     ry="0.89156622"
     rx="0"
     transform="scale(-1,1)"
     inkscape:export-filename="E:\clg\1 sem pspp\SE interview\aptitude\mcqa_01\mcqa01_1.svg.png"
     inkscape:export-xdpi="96"
     inkscape:export-ydpi="96" />
  <rect
     style="fill:#000000;fill-opacity:1;stroke-width:0.144531"
     id="rect943"
     width="40.298794"
     height="1.7831324"
     x="-95.610771"
     y="124.19164"
     ry="0.89156622"
     rx="0"
     transform="scale(-1,1)"
     inkscape:export-filename="E:\clg\1 sem pspp\SE interview\aptitude\mcqa_01\mcqa01_1.svg.png"
     inkscape:export-xdpi="96"
     inkscape:export-ydpi="96" />
  <text
     xml:space="preserve"
     style="font-style:normal;font-weight:normal;font-size:5.78125px;line-height:1.25;font-family:sans-serif;letter-spacing:0px;word-spacing:0px;fill:#000000;fill-opacity:1;stroke:none;stroke-width:0.144531"
     x="54.605694"
     y="135.69368"
     id="text947"
     inkscape:export-filename="E:\clg\1 sem pspp\SE interview\aptitude\mcqa_01\mcqa01_1.svg.png"
     inkscape:export-xdpi="96"
     inkscape:export-ydpi="96"><tspan
       sodipodi:role="line"
       id="tspan945"
       x="54.605694"
       y="135.69368"
       style="stroke-width:0.144531">Candle 1 - 6 hr</tspan></text>
  <text
     xml:space="preserve"
     style="font-style:normal;font-weight:normal;font-size:5.78125px;line-height:1.25;font-family:sans-serif;letter-spacing:0px;word-spacing:0px;fill:#000000;fill-opacity:1;stroke:none;stroke-width:0.144531"
     x="147.1057"
     y="135.69368"
     id="text953"
     inkscape:export-filename="E:\clg\1 sem pspp\SE interview\aptitude\mcqa_01\mcqa01_1.svg.png"
     inkscape:export-xdpi="96"
     inkscape:export-ydpi="96"><tspan
       sodipodi:role="line"
       id="tspan951"
       x="147.1057"
       y="135.69368"
       style="stroke-width:0.144531">Candle 2 - 4 hr</tspan></text>
  <text
     xml:space="preserve"
     style="font-style:normal;font-weight:normal;font-size:9.99818px;line-height:1.25;font-family:sans-serif;letter-spacing:0px;word-spacing:0px;fill:#000000;fill-opacity:1;stroke:none;stroke-width:0.249954"
     x="144.58044"
     y="30.544392"
     id="text957"
     inkscape:export-filename="E:\clg\1 sem pspp\SE interview\aptitude\mcqa_01\mcqa01_1.svg.png"
     inkscape:export-xdpi="96"
     inkscape:export-ydpi="96"><tspan
       sodipodi:role="line"
       id="tspan955"
       x="144.58044"
       y="30.544392"
       style="stroke-width:0.249954">{hr = Hour}</tspan></text>
  <text
     xml:space="preserve"
     style="font-style:normal;font-weight:normal;font-size:5.78125px;line-height:1.25;font-family:sans-serif;letter-spacing:0px;word-spacing:0px;fill:#000000;fill-opacity:1;stroke:none;stroke-width:0.144531"
     x="55.416458"
     y="91.828621"
     id="text961"
     inkscape:export-filename="E:\clg\1 sem pspp\SE interview\aptitude\mcqa_01\mcqa01_1.svg.png"
     inkscape:export-xdpi="96"
     inkscape:export-ydpi="96"><tspan
       sodipodi:role="line"
       id="tspan959"
       x="55.416458"
       y="91.828621"
       style="stroke-width:0.144531">1.5 hr</tspan></text>
  <text
     xml:space="preserve"
     style="font-style:normal;font-weight:normal;font-size:5.78125px;line-height:1.25;font-family:sans-serif;letter-spacing:0px;word-spacing:0px;fill:#000000;fill-opacity:1;stroke:none;stroke-width:0.144531"
     x="55.416458"
     y="77.375496"
     id="text977"
     inkscape:export-filename="E:\clg\1 sem pspp\SE interview\aptitude\mcqa_01\mcqa01_1.svg.png"
     inkscape:export-xdpi="96"
     inkscape:export-ydpi="96"><tspan
       sodipodi:role="line"
       id="tspan975"
       x="55.416458"
       y="77.375496"
       style="stroke-width:0.144531">1.5 hr</tspan></text>
  <text
     xml:space="preserve"
     style="font-style:normal;font-weight:normal;font-size:5.78125px;line-height:1.25;font-family:sans-serif;letter-spacing:0px;word-spacing:0px;fill:#000000;fill-opacity:1;stroke:none;stroke-width:0.144531"
     x="55.416458"
     y="105.1255"
     id="text981"
     inkscape:export-filename="E:\clg\1 sem pspp\SE interview\aptitude\mcqa_01\mcqa01_1.svg.png"
     inkscape:export-xdpi="96"
     inkscape:export-ydpi="96"><tspan
       sodipodi:role="line"
       id="tspan979"
       x="55.416458"
       y="105.1255"
       style="stroke-width:0.144531">1.5 hr</tspan></text>
  <text
     xml:space="preserve"
     style="font-style:normal;font-weight:normal;font-size:5.78125px;line-height:1.25;font-family:sans-serif;letter-spacing:0px;word-spacing:0px;fill:#000000;fill-opacity:1;stroke:none;stroke-width:0.144531"
     x="55.416458"
     y="120.44581"
     id="text985"
     inkscape:export-filename="E:\clg\1 sem pspp\SE interview\aptitude\mcqa_01\mcqa01_1.svg.png"
     inkscape:export-xdpi="96"
     inkscape:export-ydpi="96"><tspan
       sodipodi:role="line"
       id="tspan983"
       x="55.416458"
       y="120.44581"
       style="stroke-width:0.144531">1.5 hr</tspan></text>
  <text
     xml:space="preserve"
     style="font-style:normal;font-weight:normal;font-size:5.78125px;line-height:1.25;font-family:sans-serif;letter-spacing:0px;word-spacing:0px;fill:#000000;fill-opacity:1;stroke:none;stroke-width:0.144531"
     x="157.16646"
     y="91.828621"
     id="text989"
     inkscape:export-filename="E:\clg\1 sem pspp\SE interview\aptitude\mcqa_01\mcqa01_1.svg.png"
     inkscape:export-xdpi="96"
     inkscape:export-ydpi="96"><tspan
       sodipodi:role="line"
       id="tspan987"
       x="157.16646"
       y="91.828621"
       style="stroke-width:0.144531">1 hr</tspan></text>
  <text
     xml:space="preserve"
     style="font-style:normal;font-weight:normal;font-size:5.78125px;line-height:1.25;font-family:sans-serif;letter-spacing:0px;word-spacing:0px;fill:#000000;fill-opacity:1;stroke:none;stroke-width:0.144531"
     x="157.16646"
     y="75.930183"
     id="text993"
     inkscape:export-filename="E:\clg\1 sem pspp\SE interview\aptitude\mcqa_01\mcqa01_1.svg.png"
     inkscape:export-xdpi="96"
     inkscape:export-ydpi="96"><tspan
       sodipodi:role="line"
       id="tspan991"
       x="157.16646"
       y="75.930183"
       style="stroke-width:0.144531">1 hr</tspan></text>
  <text
     xml:space="preserve"
     style="font-style:normal;font-weight:normal;font-size:5.78125px;line-height:1.25;font-family:sans-serif;letter-spacing:0px;word-spacing:0px;fill:#000000;fill-opacity:1;stroke:none;stroke-width:0.144531"
     x="157.16646"
     y="104.83643"
     id="text997"
     inkscape:export-filename="E:\clg\1 sem pspp\SE interview\aptitude\mcqa_01\mcqa01_1.svg.png"
     inkscape:export-xdpi="96"
     inkscape:export-ydpi="96"><tspan
       sodipodi:role="line"
       id="tspan995"
       x="157.16646"
       y="104.83643"
       style="stroke-width:0.144531">1 hr</tspan></text>
  <text
     xml:space="preserve"
     style="font-style:normal;font-weight:normal;font-size:5.78125px;line-height:1.25;font-family:sans-serif;letter-spacing:0px;word-spacing:0px;fill:#000000;fill-opacity:1;stroke:none;stroke-width:0.144531"
     x="157.16646"
     y="120.44581"
     id="text1001"
     inkscape:export-filename="E:\clg\1 sem pspp\SE interview\aptitude\mcqa_01\mcqa01_1.svg.png"
     inkscape:export-xdpi="96"
     inkscape:export-ydpi="96"><tspan
       sodipodi:role="line"
       id="tspan999"
       x="157.16646"
       y="120.44581"
       style="stroke-width:0.144531">1 hr</tspan></text>
  <rect
     style="fill:#000000;fill-opacity:1;stroke-width:0.144531"
     id="rect1005"
     width="40.298794"
     height="1.7831324"
     x="-171.56664"
     y="66.522766"
     ry="0.89156622"
     rx="0"
     transform="scale(-1,1)"
     inkscape:export-filename="E:\clg\1 sem pspp\SE interview\aptitude\mcqa_01\mcqa01_1.svg.png"
     inkscape:export-xdpi="96"
     inkscape:export-ydpi="96" />
  <rect
     style="fill:#000000;fill-opacity:1;stroke-width:0.144531"
     id="rect1007"
     width="40.298794"
     height="1.7831324"
     x="-95.254143"
     y="66.522766"
     ry="0.89156622"
     rx="0"
     transform="scale(-1,1)"
     inkscape:export-filename="E:\clg\1 sem pspp\SE interview\aptitude\mcqa_01\mcqa01_1.svg.png"
     inkscape:export-xdpi="96"
     inkscape:export-ydpi="96" />
  <rect
     style="fill:#000025;fill-opacity:1;stroke-width:0.118483"
     id="rect1009"
     width="96.597733"
     height="0.75651908"
     x="20.427368"
     y="95.737389"
     ry="0.37825954"
     inkscape:export-filename="E:\clg\1 sem pspp\SE interview\aptitude\mcqa_01\mcqa01_1.svg.png"
     inkscape:export-xdpi="96"
     inkscape:export-ydpi="96" />
  <text
     xml:space="preserve"
     style="font-style:normal;font-weight:normal;font-size:9.88821px;line-height:1.25;font-family:sans-serif;letter-spacing:0px;word-spacing:0px;fill:#000000;fill-opacity:1;stroke:none;stroke-width:0.247205"
     x="21.033634"
     y="95.049171"
     id="text1013"
     inkscape:export-filename="E:\clg\1 sem pspp\SE interview\aptitude\mcqa_01\mcqa01_1.svg.png"
     inkscape:export-xdpi="96"
     inkscape:export-ydpi="96"><tspan
       sodipodi:role="line"
       id="tspan1011"
       x="21.033634"
       y="95.049171"
       style="stroke-width:0.247205">HALF</tspan></text>
  <rect
     style="fill:#000025;fill-opacity:1;stroke-width:0.144531"
     id="rect1018"
     width="21.182533"
     height="2.0173841"
     x="185.34717"
     y="92.799667"
     ry="1.008692"
     inkscape:export-filename="E:\clg\1 sem pspp\SE interview\aptitude\mcqa_01\mcqa01_1.svg.png"
     inkscape:export-xdpi="96"
     inkscape:export-ydpi="96" />
  <text
     xml:space="preserve"
     style="font-style:normal;font-weight:normal;font-size:7.45688px;line-height:1.25;font-family:sans-serif;letter-spacing:0px;word-spacing:0px;fill:#000000;fill-opacity:1;stroke:none;stroke-width:0.186422"
     x="196.81895"
     y="88.718849"
     id="text1022"
     transform="scale(0.96419278,1.037137)"
     inkscape:export-filename="E:\clg\1 sem pspp\SE interview\aptitude\mcqa_01\mcqa01_1.svg.png"
     inkscape:export-xdpi="96"
     inkscape:export-ydpi="96"><tspan
       sodipodi:role="line"
       id="tspan1020"
       x="196.81895"
       y="88.718849"
       style="stroke-width:0.186422">3 hr</tspan></text>
  <text
     xml:space="preserve"
     style="font-style:normal;font-weight:normal;font-size:8.76797px;line-height:1.25;font-family:sans-serif;letter-spacing:0px;word-spacing:0px;fill:#000000;fill-opacity:1;stroke:#000000;stroke-width:0.219199;stroke-opacity:1"
     x="19.713985"
     y="148.61485"
     id="text1028"
     inkscape:export-filename="E:\clg\1 sem pspp\SE interview\aptitude\mcqa_01\mcqa01_1.svg.png"
     inkscape:export-xdpi="96"
     inkscape:export-ydpi="96"><tspan
       sodipodi:role="line"
       id="tspan1026"
       x="19.713985"
       y="148.61485"
       style="fill:#000000;fill-opacity:1;stroke:#000000;stroke-width:0.219199;stroke-opacity:1">When 1st candle become half 3 hours pass</tspan></text>
</svg>
